<svg width="132" height="32" viewBox="0 0 132 32" fill="none" xmlns="http://www.w3.org/2000/svg">
<path fill-rule="evenodd" clip-rule="evenodd" d="M11.5243 31.7957C4.66386 31.7957 0.871 28.3268 0.46101 27.9339L0 27.487L2.50367 24.656L2.93188 25.0544C3.27536 25.3715 6.4751 28.2336 11.6237 28.2336C15.555 28.2336 18.3001 26.2598 18.3001 23.4315C18.3001 20.0466 14.6849 18.7262 10.4966 17.1973C5.98402 15.5506 0.864622 13.68 0.864622 8.40356C0.864622 4.27215 5.03467 0 12.0127 0C17.6642 0 20.924 2.61355 21.2803 2.90963L21.9435 3.43691L19.6558 6.45437L18.9151 5.82839C18.8067 5.73792 16.098 3.5621 12.061 3.5621C7.57478 3.5621 4.89618 6.00385 4.89618 8.36427C4.89618 11.3227 8.28967 12.5441 12.2218 13.9594L12.235 13.9642C16.7367 15.5744 22.3308 17.5775 22.3308 23.3501C22.3308 28.3232 17.8874 31.7957 11.5243 31.7957ZM40.733 15.8919C45.3394 15.8919 48.09 13.5744 48.09 9.69064C48.09 5.80504 45.4087 3.57439 40.733 3.57439H32.6434V15.8919H40.733ZM28.7084 31.8957V0.0150352H40.8295C47.5844 0.0150352 52.1216 3.90429 52.1216 9.69064C52.1216 15.53 47.5844 19.4522 40.8295 19.4522H32.6434V31.8957H28.7084ZM62.4304 31.8954H58.4991V0.0146714H62.4304V31.8954ZM95.2728 31.8957C95.2728 31.8957 74.8972 7.15568 74.5474 6.68689C74.5565 6.93728 74.5629 31.8957 74.5629 31.8957H70.6306V0.0150352H73.9297C73.9297 0.0150352 94.3025 24.7551 94.6514 25.223C94.6432 24.9698 94.6369 0.0150352 94.6369 0.0150352H98.5682V31.8957H95.2728ZM115.133 16.1483L103.193 31.9018H108.075L120.055 16.1364L107.985 0.0485005H103.124L115.133 16.1483Z" fill="white"/>
<path fill-rule="evenodd" clip-rule="evenodd" d="M127.14 0.0478516L119.043 10.8411L121.503 14.1208L132 0.0478516H127.14Z" fill="#B4E300"/>
<path fill-rule="evenodd" clip-rule="evenodd" d="M119.043 21.3656L127.049 31.9021H131.93L121.497 18.1353L119.043 21.3656Z" fill="#B4E300"/>
</svg>
